<svg xmlns="http://www.w3.org/2000/svg" viewBox="0 0 500 500">
  <!-- RIC hearing aid – LEFT ear (blue, wire exits right to receiver on left) -->
  <defs>
    <linearGradient id="bodyL" x1="0" y1="0" x2="1" y2="0">
      <stop offset="0%" stop-color="#0055d4"/>
      <stop offset="45%" stop-color="#2979ff"/>
      <stop offset="100%" stop-color="#64b5f6"/>
    </linearGradient>
  </defs>
  <!-- Main body -->
  <path d="M200 55 C245 50, 280 75, 285 120 L290 310 C292 365, 270 410, 230 425 C200 435, 175 415, 172 385 L168 160 C165 110, 175 70, 200 55z"
        fill="url(#bodyL)" stroke="#1a1a2e" stroke-width="3"/>
  <!-- Inner highlight -->
  <path d="M210 75 C240 72, 265 90, 268 125 L272 305 C273 348, 258 385, 232 395 C212 402, 195 390, 193 370 L189 165 C187 122, 194 88, 210 75z"
        fill="none" stroke="rgba(255,255,255,0.25)" stroke-width="2"/>
  <!-- Top detail dots -->
  <circle cx="215" cy="100" r="4" fill="rgba(255,255,255,0.3)"/>
  <circle cx="230" cy="120" r="3" fill="rgba(255,255,255,0.2)"/>
  <!-- Button -->
  <rect x="160" y="260" width="16" height="50" rx="6" fill="#3a3a4a" stroke="#1a1a2e" stroke-width="2"/>
  <!-- Wire from top curving right and down -->
  <path d="M225 58 C230 30, 260 10, 310 15 C370 22, 395 65, 390 120 C385 180, 370 250, 358 310 C350 355, 345 390, 340 415"
        fill="none" stroke="#c0c0c0" stroke-width="4" stroke-linecap="round"/>
  <!-- Wire inner highlight -->
  <path d="M225 58 C230 30, 260 10, 310 15 C370 22, 395 65, 390 120 C385 180, 370 250, 358 310 C350 355, 345 390, 340 415"
        fill="none" stroke="rgba(255,255,255,0.35)" stroke-width="1.5" stroke-linecap="round"/>
  <!-- Receiver / speaker unit -->
  <ellipse cx="345" cy="432" rx="18" ry="16" fill="#3a3a4a" stroke="#1a1a2e" stroke-width="2.5"/>
  <ellipse cx="345" cy="435" rx="10" ry="9" fill="#2a2a38"/>
  <!-- Dome connector band -->
  <rect x="336" y="412" width="18" height="6" rx="3" fill="#2979ff" stroke="#1a1a2e" stroke-width="1.5"/>
</svg>
